<?xml version="1.0" encoding="UTF-8" standalone="no"?>
<!-- Created with Inkscape (http://www.inkscape.org/) -->

<svg
   id="svg7586"
   sodipodi:docname="cubo base.svg"
   viewBox="0 0 259.36 274.01"
   sodipodi:version="0.32"
   version="1.0"
   inkscape:output_extension="org.inkscape.output.svg.inkscape"
   inkscape:version="1.2.1 (9c6d41e410, 2022-07-14)"
   xmlns:inkscape="http://www.inkscape.org/namespaces/inkscape"
   xmlns:sodipodi="http://sodipodi.sourceforge.net/DTD/sodipodi-0.dtd"
   xmlns="http://www.w3.org/2000/svg"
   xmlns:svg="http://www.w3.org/2000/svg"
   xmlns:rdf="http://www.w3.org/1999/02/22-rdf-syntax-ns#"
   xmlns:cc="http://creativecommons.org/ns#"
   xmlns:dc="http://purl.org/dc/elements/1.1/">
  <defs
     id="defs75" />
  <sodipodi:namedview
     id="base"
     bordercolor="#666666"
     inkscape:pageshadow="2"
     inkscape:window-y="-8"
     pagecolor="#ffffff"
     inkscape:window-height="1009"
     inkscape:zoom="2.8284271"
     inkscape:window-x="-8"
     showgrid="false"
     borderopacity="1.0"
     inkscape:current-layer="layer1"
     inkscape:cx="158.92225"
     inkscape:cy="124.80435"
     inkscape:window-width="1920"
     inkscape:pageopacity="0.0"
     inkscape:document-units="px"
     inkscape:showpageshadow="0"
     inkscape:pagecheckerboard="0"
     inkscape:deskcolor="#d1d1d1"
     inkscape:window-maximized="1" />
  <g
     id="layer1"
     inkscape:label="Camada 1"
     inkscape:groupmode="layer"
     transform="translate(-227.46 -141.07)">
    <path
       id="path7380"
       style="stroke-linejoin:round;fill-rule:evenodd;stroke:#000000;stroke-linecap:round;stroke-width:2.0546;fill:#cc0000"
       d="m357.68 151.15l-32.19 11.12 31.67 11.71 32.01-11.82-31.49-11.01z" />
    <path
       id="path7378"
       style="stroke-linejoin:round;fill-rule:evenodd;stroke:#000000;stroke-linecap:round;stroke-width:2.0546;fill:#cc0000"
       d="m391.3 162.89l-32.07 11.84 40.3 14.89 31.52-12.84-39.75-13.89z" />
    <path
       id="path7376"
       style="stroke-linejoin:round;fill-rule:evenodd;stroke:#000000;stroke-linecap:round;stroke-width:2.0546;fill:#cc0000"
       d="m323.36 163l-39.95 13.84 31.37 12.78 40.31-14.89-31.73-11.73z" />
    <path
       id="path7374"
       style="stroke-linejoin:round;fill-rule:evenodd;stroke:#000000;stroke-linecap:round;stroke-width:2.0546;fill:#cc0000"
       d="m357.16 175.49l-40.42 14.92 40.42 16.46 40.42-16.46-40.42-14.92z" />
    <path
       id="path7372"
       style="stroke-linejoin:round;fill-rule:evenodd;stroke:#000000;stroke-linecap:round;stroke-width:2.0546;fill:#cc0000"
       d="m433.07 177.48l-31.55 12.87 43.37 16.02 30.79-14.01-42.61-14.88z" />
    <path
       id="path7370"
       style="stroke-linejoin:round;fill-rule:evenodd;stroke:#000000;stroke-linecap:round;stroke-width:2.0546;fill:#cc0000"
       d="m281.37 177.54l-42.82 14.79 30.73 14.07 43.55-16.05-31.46-12.81z" />
    <path
       id="path7368"
       style="stroke-linejoin:round;fill-rule:evenodd;stroke:#000000;stroke-linecap:round;stroke-width:2.0546;fill:#cc0000"
       d="m314.78 191.14l-43.63 16.11 40.04 18.35 44.1-17.97-40.51-16.49z" />
    <path
       id="path7366"
       style="stroke-linejoin:round;fill-rule:evenodd;stroke:#000000;stroke-linecap:round;stroke-width:2.0546;fill:#cc0000"
       d="m399.56 191.14l-40.51 16.49 43.78 17.86 40.22-18.3-43.49-16.05z" />
    <path
       id="path7364"
       style="stroke-linejoin:round;fill-rule:evenodd;stroke:#000000;stroke-linecap:round;stroke-width:2.0546;fill:#fce94f"
       d="m237.06 193.21l4.38 49.82 29.59 15.64-3.21-51.19 0.35-0.03-31.11-14.24z" />
    <path
       id="path7362"
       style="stroke-linejoin:round;fill-rule:evenodd;stroke:#000000;stroke-linecap:round;stroke-width:2.0546;fill:#3465a4"
       d="m477.22 193.21l-31.31 14.24 0.58 0.06-4.79 52.15 29.42-15.55 6.1-50.9z" />
    <path
       id="path7360"
       style="stroke-linejoin:round;fill-rule:evenodd;stroke:#000000;stroke-linecap:round;stroke-width:2.0546;fill:#3465a4"
       d="m444.94 207.89l-41.09 18.71 0.53 0.02-1.9 53.82 37.74-19.99 4.81-52.53-0.09-0.03z" />
    <path
       id="path7358"
       style="stroke-linejoin:round;fill-rule:evenodd;stroke:#000000;stroke-linecap:round;stroke-width:2.0546;fill:#fce94f"
       d="m269.28 207.98l3.24 51.48 39.14 20.69-1.72-53.53h0.06l-40.72-18.64z" />
    <path
       id="path7356"
       style="stroke-linejoin:round;fill-rule:evenodd;stroke:#000000;stroke-linecap:round;stroke-width:2.0546;fill:#cc0000"
       d="m357.19 208.41l-44.22 18.01 43.75 20.05 44.36-20.2-43.89-17.86z" />
    <path
       id="path7354"
       style="stroke-linejoin:round;fill-rule:evenodd;stroke:#000000;stroke-linecap:round;stroke-width:2.0546;fill:#3465a4"
       d="m402.89 227.03l-45.41 20.67 0.49 56.32 43.08-22.82 1.9-54.14-0.06-0.03z" />
    <path
       id="path7352"
       style="stroke-linejoin:round;fill-rule:evenodd;stroke:#000000;stroke-linecap:round;stroke-width:2.0546;fill:#fce94f"
       d="m311.4 227.27l1.69 53.64 43.48 22.97-0.49-56.13-44.68-20.48z" />
    <path
       id="path7350"
       style="stroke-linejoin:round;fill-rule:evenodd;stroke:#000000;stroke-linecap:round;stroke-width:2.0546;fill:#fce94f"
       d="m241.59 244.69l4.08 46.37 28.49 17.57-3.04-48.33-29.53-15.61z" />
    <path
       id="path7348"
       style="stroke-linejoin:round;fill-rule:evenodd;stroke:#000000;stroke-linecap:round;stroke-width:2.0546;fill:#3465a4"
       d="m470.92 245.8l-29.36 15.55-4.52 49.27 28.22-17.63 5.66-47.19z" />
    <path
       id="path7346"
       style="stroke-linejoin:round;fill-rule:evenodd;stroke:#000000;stroke-linecap:round;stroke-width:2.0546;fill:#fce94f"
       d="m272.61 261.09l3.04 48.45 37.67 23.26-1.63-51.02-39.08-20.69z" />
    <path
       id="path7344"
       style="stroke-linejoin:round;fill-rule:evenodd;stroke:#000000;stroke-linecap:round;stroke-width:2.0546;fill:#3465a4"
       d="m440.07 262.14l-37.65 19.93-1.81 51.34 34.94-21.86 4.52-49.41z" />
    <path
       id="path7342"
       style="stroke-linejoin:round;fill-rule:evenodd;stroke:#000000;stroke-linecap:round;stroke-width:2.0546;fill:#fce94f"
       d="m313.15 282.54l1.63 51.13 42.26 26.09-0.47-54.25-43.42-22.97z" />
    <path
       id="path7340"
       style="stroke-linejoin:round;fill-rule:evenodd;stroke:#000000;stroke-linecap:round;stroke-width:2.0546;fill:#3465a4"
       d="m400.99 282.83l-43.02 22.77 0.47 54.16 40.71-25.45 1.84-51.48z" />
    <path
       id="path7338"
       style="stroke-linejoin:round;fill-rule:evenodd;stroke:#000000;stroke-linecap:round;stroke-width:2.0546;fill:#fce94f"
       d="m245.82 292.79l3.79 43.13 27.35 17.51-2.72-43.1-28.42-17.54z" />
    <path
       id="path7336"
       style="stroke-linejoin:round;fill-rule:evenodd;stroke:#000000;stroke-linecap:round;stroke-width:2.0546;fill:#3465a4"
       d="m465.02 294.8l-28.13 17.6-3.56 38.75 27.32-19.72 4.37-36.63z" />
    <path
       id="path7334"
       style="stroke-linejoin:round;fill-rule:evenodd;stroke:#000000;stroke-linecap:round;stroke-width:2.0546;fill:#fce94f"
       d="m275.76 311.26l2.69 43.13 36.3 23.26-1.37-43.19-37.62-23.2z" />
    <path
       id="path7332"
       style="stroke-linejoin:round;fill-rule:evenodd;stroke:#000000;stroke-linecap:round;stroke-width:2.0546;fill:#3465a4"
       d="m435.37 313.33l-34.82 21.8-1.43 40.71 32.69-23.61 3.56-38.9z" />
    <path
       id="path7330"
       style="stroke-linejoin:round;fill-rule:evenodd;stroke:#000000;stroke-linecap:round;stroke-width:2.0546;fill:#fce94f"
       d="m314.81 335.37l1.37 43.22 41.24 26.41-0.35-43.6-42.26-26.03z" />
    <path
       id="path7319"
       style="stroke-linejoin:round;fill-rule:evenodd;stroke:#000000;stroke-linecap:round;stroke-width:2.0546;fill:#3465a4"
       d="m399.1 336.04l-40.63 25.42 0.35 43.45 38.85-28.01 1.43-40.86z" />
    <path
       style="fill:#784421;stroke:#000000;stroke-width:1.33626"
       d="m 174.49449,188.35799 c 0.048,-5.08356 1.66723,-46.43951 1.8244,-46.59667 0.25409,-0.2541 34.73646,-18.50491 34.81473,-18.42673 0.0738,0.0737 -4.15645,46.34219 -4.2445,46.42471 -0.0332,0.0311 -6.10615,3.83511 -13.49542,8.4533 -7.38926,4.61819 -14.66804,9.16857 -16.17506,10.11195 l -2.74004,1.71524 z"
       id="path319"
       transform="translate(227.46,141.07)" />
  </g>
  <metadata
     id="metadata72">
    <rdf:RDF>
      <cc:Work>
        <dc:format>image/svg+xml</dc:format>
        <dc:type
           rdf:resource="http://purl.org/dc/dcmitype/StillImage" />
        <cc:license
           rdf:resource="http://creativecommons.org/licenses/publicdomain/" />
        <dc:publisher>
          <cc:Agent
             rdf:about="http://openclipart.org/">
            <dc:title>Openclipart</dc:title>
          </cc:Agent>
        </dc:publisher>
        <dc:title>Rubik</dc:title>
        <dc:date>2008-01-03T22:14:52</dc:date>
        <dc:description />
        <dc:source>https://openclipart.org/detail/10646/rubik-by-valessiobrito</dc:source>
        <dc:creator>
          <cc:Agent>
            <dc:title>valessiobrito</dc:title>
          </cc:Agent>
        </dc:creator>
        <dc:subject>
          <rdf:Bag>
            <rdf:li>cube</rdf:li>
            <rdf:li>puzzle</rdf:li>
            <rdf:li>rubik</rdf:li>
          </rdf:Bag>
        </dc:subject>
      </cc:Work>
      <cc:License
         rdf:about="http://creativecommons.org/licenses/publicdomain/">
        <cc:permits
           rdf:resource="http://creativecommons.org/ns#Reproduction" />
        <cc:permits
           rdf:resource="http://creativecommons.org/ns#Distribution" />
        <cc:permits
           rdf:resource="http://creativecommons.org/ns#DerivativeWorks" />
      </cc:License>
    </rdf:RDF>
  </metadata>
</svg>
